#!OML:ASF X:\für Bonn\!DataBase\2005_08_11_Bastian_Final\c3d\Bastian.ASF
:FULLY-SPECIFIED
:DEGREES
200
root -21.7212 17.6767 0.876766 151.177 -74.2836 -156.132
lowerback 6.20233 2.20032 -0.811428
upperback 4.78479 2.7177 -2.04264
thorax 1.51877 1.29151 -1.77671
lowerneck -6.12898 -2.29747 -0.665912
upperneck -12.6885 -2.72773 11.4787
head -2.88596 -1.91347 4.00141
rclavicle -2.18663e-014 6.36111e-015
rhumerus -4.02904 67.615 -59.3048
rradius 99.9108
rwrist 19.6124
rhand -11.8997 6.88432
rfingers 7.12502
rthumb 14.1536 -22.6136
lclavicle -2.18663e-014 6.36111e-015
lhumerus -18.1599 -10.7809 82.7437
lradius 15.3289
lwrist 12.6512
lhand -11.0359 -6.68621
lfingers 7.12502
lthumb 14.9859 22.7515
rfemur -4.21982 7.96532 24.4483
rtibia 35.1018
rfoot -15.4534 -0.631961
rtoes -12.599
lfemur -6.4817 0.864398 -13.7689
ltibia 26.0761
lfoot -9.54069 -16.8444
ltoes -20.3061
201
root -21.7097 17.6788 0.864801 150.143 -75.0005 -155.154
lowerback 6.21788 2.14193 -0.836187
upperback 4.82556 2.63853 -2.07331
thorax 1.55074 1.25139 -1.7906
lowerneck -6.00257 -2.23893 -0.791499
upperneck -12.7173 -2.63069 11.4354
head -2.92473 -1.85823 4.01441
rclavicle 1.35174e-014 2.54444e-014
rhumerus -12.6533 66.8263 -67.9966
rradius 97.1886
rwrist 19.9114
rhand -12.171 6.58549
rfingers 7.12502
rthumb 13.8922 -22.9305
lclavicle 1.35174e-014 2.54444e-014
lhumerus -17.8405 -11.1159 82.7919
lradius 16.4097
lwrist 13.6989
lhand -11.1399 -6.76946
lfingers 7.12502
lthumb 14.8857 22.6757
rfemur -4.23633 8.19299 24.3917
rtibia 35.1041
rfoot -15.5368 -0.411167
rtoes -12.3365
lfemur -6.51882 0.344852 -13.8322
ltibia 25.984
lfoot -9.56383 -17.1775
ltoes -20.7907
202
root -21.6987 17.6819 0.850019 149.03 -75.7313 -154.08
lowerback 6.20955 2.07742 -0.89516
upperback 4.87068 2.55044 -2.09925
thorax 1.59842 1.20585 -1.77915
lowerneck -5.9359 -2.16366 -0.90737
upperneck -12.715 -2.5173 11.3735
head -2.94345 -1.79208 4.0161
rclavicle -1.61016e-014 3.02153e-014
rhumerus -20.1583 65.2661 -75.5881
rradius 94.412
rwrist 20.1405
rhand -12.5289 6.1565
rfingers 7.12502
rthumb 13.5473 -23.3828
lclavicle -1.61016e-014 3.02153e-014
lhumerus -17.5091 -11.383 82.8446
lradius 17.4987
lwrist 14.6801
lhand -11.2835 -6.87069
lfingers 7.12502
lthumb 14.7474 22.5847
rfemur -4.25736 8.4638 24.337
rtibia 35.0953
rfoot -15.5964 -0.211312
rtoes -11.9454
lfemur -6.57312 -0.109214 -13.8947
ltibia 25.8889
lfoot -9.60388 -17.5906
ltoes -21.295
203
root -21.6871 17.6849 0.829827 147.764 -76.5168 -152.87
lowerback 6.24441 2.00623 -1.03754
upperback 4.90284 2.44846 -2.11434
thorax 1.60444 1.15097 -1.71111
lowerneck -5.82535 -2.0792 -1.06537
upperneck -12.7411 -2.38465 11.3446
head -2.98105 -1.71756 4.04002
rclavicle 6.16232e-015 2.54444e-014
rhumerus -26.4002 63.0929 -81.8794
rradius 91.6638
rwrist 20.2534
rhand -12.9881 5.66179
rfingers 7.12502
rthumb 13.1047 -23.9065
lclavicle 6.16232e-015 2.54444e-014
lhumerus -17.2603 -11.5799 82.9074
lradius 18.6544
lwrist 15.6349
lhand -11.417 -7.00823
lfingers 7.12502
lthumb 14.6188 22.4565
rfemur -4.25203 8.76935 24.2933
rtibia 35.083
rfoot -15.6655 -0.109682
rtoes -11.6373
lfemur -6.63064 -0.485989 -13.9534
ltibia 25.7937
lfoot -9.56349 -18.1283
ltoes -21.7666
204
root -21.6754 17.6887 0.806213 146.293 -77.3005 -151.43
lowerback 6.25078 1.9255 -1.22638
upperback 4.93382 2.33301 -2.10285
thorax 1.62215 1.08795 -1.58805
lowerneck -5.7386 -1.98187 -1.1967
upperneck -12.7445 -2.24141 11.2602
head -3.00789 -1.63545 4.03718
rclavicle 2.56432e-014 -9.54166e-015
rhumerus -31.2681 60.4738 -86.8049
rradius 88.9593
rwrist 20.2828
rhand -13.43 5.10387
rfingers 7.12502
rthumb 12.6786 -24.4913
lclavicle 2.56432e-014 -9.54166e-015
lhumerus -17.0321 -11.7115 82.9902
lradius 19.8114
lwrist 16.554
lhand -11.5538 -7.20799
lfingers 7.12502
lthumb 14.4869 22.2663
rfemur -4.26288 9.09906 24.2722
rtibia 35.0634
rfoot -15.7079 0.00942337
rtoes -11.1515
lfemur -6.70971 -0.90093 -13.9867
ltibia 25.7049
lfoot -9.52569 -18.6391
ltoes -22.0437
205
root -21.6629 17.6907 0.782454 144.568 -78.0749 -149.758
lowerback 6.30555 1.84553 -1.42258
upperback 4.96063 2.21642 -2.0852
thorax 1.60905 1.02397 -1.45611
lowerneck -5.66723 -1.86648 -1.27585
upperneck -12.7348 -2.0795 11.1422
head -3.02931 -1.54461 4.01123
rclavicle 1.51076e-014 -2.70347e-014
rhumerus -34.9766 57.529 -90.5905
rradius 86.2862
rwrist 20.2366
rhand -13.8747 4.50024
rfingers 7.12502
rthumb 12.25 -25.121
lclavicle 1.51076e-014 -2.70347e-014
lhumerus -16.8505 -11.8577 83.0842
lradius 21.0066
lwrist 17.4899
lhand -11.7117 -7.39793
lfingers 7.12502
lthumb 14.3348 22.0872
rfemur -4.24945 9.4733 24.272
rtibia 35.0381
rfoot -15.7517 0.0846502
rtoes -10.807
lfemur -6.7846 -1.26492 -14.0089
ltibia 25.6307
lfoot -9.51803 -19.1975
ltoes -22.5317
206
root -21.6502 17.6922 0.759225 142.694 -78.8643 -147.915
lowerback 6.35546 1.74725 -1.64644
upperback 4.97349 2.07459 -2.06683
thorax 1.58382 0.946967 -1.3066
lowerneck -5.56483 -1.72539 -1.37497
upperneck -12.7444 -1.88021 11.028
head -3.06576 -1.43583 3.99181
rclavicle 3.12092e-014 -3.49861e-014
rhumerus -37.7581 54.3983 -93.4295
rradius 83.6592
rwrist 20.1458
rhand -14.3147 3.92216
rfingers 7.12502
rthumb 11.8256 -25.7239
lclavicle 3.12092e-014 -3.49861e-014
lhumerus -16.7131 -11.9413 83.194
lradius 22.1873
lwrist 18.3675
lhand -11.8639 -7.62673
lfingers 7.12502
lthumb 14.1881 21.8687
rfemur -4.25199 9.81718 24.2273
rtibia 35.0083
rfoot -15.8286 0.234498
rtoes -10.7882
lfemur -6.89624 -1.67017 -14.0666
ltibia 25.5775
lfoot -9.48517 -19.7319
ltoes -22.8538
207
root -21.6355 17.6931 0.736649 140.505 -79.6392 -145.77
lowerback 6.44468 1.64921 -1.85035
upperback 4.98835 1.93208 -2.04599
thorax 1.54076 0.870084 -1.1665
lowerneck -5.50328 -1.56755 -1.48229
upperneck -12.7276 -1.66106 10.9127
head -3.08698 -1.31478 3.97153
rclavicle 2.66371e-014 -5.08889e-014
rhumerus -39.7841 51.1658 -95.446
rradius 81.1274
rwrist 20.0218
rhand -14.6985 3.37166
rfingers 7.12502
rthumb 11.4556 -26.2954
lclavicle 2.66371e-014 -5.08889e-014
lhumerus -16.6076 -12.0009 83.3284
lradius 23.3868
lwrist 19.1928
lhand -12.0371 -7.86845
lfingers 7.12502
lthumb 14.0212 21.6386
rfemur -4.24575 10.2093 24.1901
rtibia 34.9751
rfoot -15.8853 0.382411
rtoes -10.7992
lfemur -7.01517 -2.13554 -14.1269
ltibia 25.5485
lfoot -9.52182 -20.1858
ltoes -23.2243
208
root -21.621 17.6941 0.714947 138.056 -80.3843 -143.33
lowerback 6.50046 1.56722 -2.00277
upperback 4.99188 1.81484 -2.03775
thorax 1.50777 0.807815 -1.06833
lowerneck -5.43085 -1.41938 -1.59229
upperneck -12.7239 -1.45435 10.7935
head -3.11384 -1.2003 3.95077
rclavicle 4.96962e-015 0
rhumerus -41.2628 47.8515 -96.8466
rradius 78.6559
rwrist 19.8781
rhand -15.0892 2.83421
rfingers 7.12502
rthumb 11.0787 -26.8534
lclavicle 4.96962e-015 0
lhumerus -16.5052 -12.1038 83.473
lradius 24.5407
lwrist 19.9547
lhand -12.2115 -8.11587
lfingers 7.12502
lthumb 13.8531 21.4028
rfemur -4.27262 10.5728 24.1338
rtibia 34.9412
rfoot -15.9585 0.619071
rtoes -10.8807
lfemur -7.17391 -2.60667 -14.1901
ltibia 25.5331
lfoot -9.56497 -20.611
ltoes -23.7126
209
root -21.605 17.6937 0.69273 135.067 -81.1306 -140.381
lowerback 6.5991 1.4672 -2.13811
upperback 5.00762 1.67208 -2.03404
thorax 1.46499 0.732963 -0.983739
lowerneck -5.36295 -1.2536 -1.7574
upperneck -12.7174 -1.21972 10.7198
head -3.14112 -1.07076 3.95672
rclavicle -1.80894e-014 -2.70347e-014
rhumerus -42.4182 44.4485 -97.7786
rradius 76.3516
rwrist 19.8547
rhand -15.3831 2.33064
rfingers 7.12502
rthumb 10.7952 -27.3719
lclavicle -1.80894e-014 -2.70347e-014
lhumerus -16.403 -12.1118 83.6141
lradius 25.6275
lwrist 20.5439
lhand -12.3808 -8.44352
lfingers 7.12502
lthumb 13.69 21.0862
rfemur -4.26917 10.9614 24.0894
rtibia 34.9065
rfoot -16.0645 0.849651
rtoes -10.9798
lfemur -7.31237 -3.11705 -14.2573
ltibia 25.53
lfoot -9.63751 -21.0314
ltoes -24.1884
210
root -21.59 17.6933 0.669336 131.448 -81.8665 -136.772
lowerback 6.6607 1.37224 -2.23463
upperback 5.00673 1.54004 -2.03597
thorax 1.42736 0.665214 -0.926166
lowerneck -5.22717 -1.10617 -1.9593
upperneck -12.7487 -1.00465 10.6492
head -3.19292 -0.951703 3.97322
rclavicle -4.77083e-015 1.90833e-014
rhumerus -43.297 40.938 -98.308
rradius 74.0652
rwrist 19.954
rhand -15.7254 1.88616
rfingers 7.12502
rthumb 10.4651 -27.8334
lclavicle -4.77083e-015 1.90833e-014
lhumerus -16.3457 -12.1924 83.7917
lradius 26.6936
lwrist 21.1262
lhand -12.532 -8.76059
lfingers 7.12502
lthumb 13.5443 20.7789
rfemur -4.28778 11.3801 24.0475
rtibia 34.8717
rfoot -16.1817 1.07506
rtoes -10.832
lfemur -7.49466 -3.62999 -14.3201
ltibia 25.5391
lfoot -9.66525 -21.4823
ltoes -24.4781
211
root -21.5749 17.6939 0.6462 126.975 -82.5842 -132.301
lowerback 6.70931 1.26979 -2.29303
upperback 5.0079 1.40055 -2.04876
thorax 1.40068 0.59489 -0.900155
lowerneck -5.02131 -0.952041 -2.24591
upperneck -13.0892 -0.711171 10.931
head -2.97988 -0.83556 3.7244
rclavicle -6.55989e-015 7.95139e-015
rhumerus -43.8422 37.4237 -98.506
rradius 71.6385
rwrist 20.1125
rhand -16.1412 1.51026
rfingers 7.12502
rthumb 10.0639 -28.2291
lclavicle -6.55989e-015 7.95139e-015
lhumerus -16.2801 -12.2477 83.9697
lradius 27.6702
lwrist 21.5611
lhand -12.6348 -9.13111
lfingers 7.12502
lthumb 13.4452 20.415
rfemur -4.31598 11.7608 24.0004
rtibia 34.848
rfoot -16.2977 1.33498
rtoes -10.6677
lfemur -7.69544 -4.19194 -14.3896
ltibia 25.5642
lfoot -9.73993 -21.915
ltoes -24.8802
212
root -21.5598 17.6928 0.621844 121.321 -83.2678 -126.647
lowerback 6.73566 1.1687 -2.34586
upperback 5.0328 1.26396 -2.0607
thorax 1.41124 0.525498 -0.875785
lowerneck -4.92118 -0.802034 -2.48318
upperneck -13.1178 -0.491549 10.8955
head -3.0184 -0.713379 3.75264
rclavicle 1.59028e-015 2.22639e-014
rhumerus -44.1203 33.8962 -98.4174
rradius 69.1203
rwrist 20.2522
rhand -16.6103 1.16474
rfingers 7.12502
rthumb 9.6114 -28.596
lclavicle 1.59028e-015 2.22639e-014
lhumerus -16.1986 -12.3971 84.1468
lradius 28.6415
lwrist 22.0164
lhand -12.7181 -9.4689
lfingers 7.12502
lthumb 13.365 20.0825
rfemur -4.32992 12.158 23.9643
rtibia 34.8307
rfoot -16.4418 1.56996
rtoes -10.5865
lfemur -7.92394 -4.72823 -14.4545
ltibia 25.6117
lfoot -9.77481 -22.3829
ltoes -25.2653
